<svg data-v-0dd9719b="" version="1.0" xmlns="http://www.w3.org/2000/svg" xmlns:xlink="http://www.w3.org/1999/xlink" width="100%" height="100%" viewBox="0 0 340.000000 250.000000" preserveAspectRatio="xMidYMid meet" color-interpolation-filters="sRGB" style="margin: auto;"> <rect data-v-0dd9719b="" x="0" y="0" width="100%" height="100%" fill="#feffff" fill-opacity="1" class="background"></rect> <rect data-v-0dd9719b="" x="0" y="0" width="100%" height="100%" fill="url(#watermark)" fill-opacity="1" class="watermarklayer"></rect> <g data-v-0dd9719b="" fill="#000000" class="icon-text-wrapper icon-svg-group iconsvg" transform="translate(59.20936584472656,94.20936965942383)"><g fill="#E06666" class="iconsvg-imagesvg icon_container" transform="translate(0,0)" mask="url(#d783b068-ce53-423f-8a7a-509f3bf4cc50)"><rect fill="#000000" fill-opacity="0" stroke-width="2" x="0" y="0" width="61.581259150805266" height="61.581259150805266" class="image-rect"></rect> <svg viewBox="0 0 60 60" x="0" y="0" width="61.581259150805266" height="61.581259150805266" class="image-svg-svg bn" style="overflow: visible;"><g hollow-target="iconBnFill" mask="url(#9bef58c4-fce7-44c1-8be7-622d1e810145)"><g><svg fill="#000000" xmlns="http://www.w3.org/2000/svg" xmlns:xlink="http://www.w3.org/1999/xlink" xmlns:sketch="http://www.bohemiancoding.com/sketch/ns" viewBox="0 0 60 60" version="1.1" x="0" y="0" style="overflow: visible;" width="60" height="60" filtersec="colorsf3733582268" filter="url(#8Ie146E96eJfIQpbPNAK2)"><g transform="scale(1, 1) skewX(0)"><title>96 - Rounded (Solid)</title><desc>Created with Sketch.</desc><g fill-rule="evenodd"><g fill="#000000"><path d="M49.001,0 L10.999,0 C4.934,0 0,4.934 0,10.999 L0,49.001 C0,55.066 4.934,60 10.999,60 L49.001,60 C55.065,60 60,55.066 60,49.001 L60,10.999 C60,4.934 55.065,0 49.001,0"></path></g></g></g><defs><filter id="8Ie146E96eJfIQpbPNAK2"><feColorMatrix type="matrix" values="0 0 0 0 0.875  0 0 0 0 0.3984375  0 0 0 0 0.3984375  0 0 0 1 0"></feColorMatrix></filter></defs></svg></g> <g filter="url(#colors9047305189)"><svg xmlns="http://www.w3.org/2000/svg" xmlns:xlink="http://www.w3.org/1999/xlink" viewBox="0 0 54.59478260869565 64.80000000000001" width="50" height="50" x="5" y="5" class="image-svg-letter"><path transform="translate(-5.822608695652175 64.80000000000001)" d="M38.19-64.80L38.25-64.80L60.42-64.80L56.22-57.60L39.01-57.60Q32.18-57.60 26.36-54.22Q20.54-50.84 17.15-45.02Q13.77-39.19 13.77-32.37Q13.77-25.54 17.15-19.75Q20.54-13.96 26.36-10.58Q32.18-7.20 39.01-7.20L39.01-7.20L53.22-7.20L53.22-28.05L35.50-28.05L31.37-35.25L60.42-35.25L60.42-7.20L60.42 0L53.22 0L38.19 0Q31.68 0 25.67-2.57Q19.66-5.13 15.31-9.49Q10.96-13.84 8.39-19.85Q5.82-25.86 5.82-32.40Q5.82-38.94 8.39-44.95Q10.96-50.96 15.31-55.31Q19.66-59.67 25.67-62.23Q31.68-64.80 38.19-64.80L38.19-64.80Z"></path></svg></g></g><mask id="9bef58c4-fce7-44c1-8be7-622d1e810145"><g fill="white"><svg xmlns="http://www.w3.org/2000/svg" xmlns:xlink="http://www.w3.org/1999/xlink" xmlns:sketch="http://www.bohemiancoding.com/sketch/ns" viewBox="0 0 60 60" version="1.1" x="0" y="0" style="overflow: visible;" width="60" height="60" filtersec="colorsf3733582268"><g transform="scale(1, 1) skewX(0)"><title>96 - Rounded (Solid)</title><desc>Created with Sketch.</desc><g fill-rule="evenodd"><g><path d="M49.001,0 L10.999,0 C4.934,0 0,4.934 0,10.999 L0,49.001 C0,55.066 4.934,60 10.999,60 L49.001,60 C55.065,60 60,55.066 60,49.001 L60,10.999 C60,4.934 55.065,0 49.001,0"></path></g></g></g><defs></defs></svg></g> <g fill="black"><svg xmlns="http://www.w3.org/2000/svg" xmlns:xlink="http://www.w3.org/1999/xlink" viewBox="0 0 54.59478260869565 64.80000000000001" width="50" height="50" x="5" y="5" class="image-svg-letter"><path transform="translate(-5.822608695652175 64.80000000000001)" d="M38.19-64.80L38.25-64.80L60.42-64.80L56.22-57.60L39.01-57.60Q32.18-57.60 26.36-54.22Q20.54-50.84 17.15-45.02Q13.77-39.19 13.77-32.37Q13.77-25.54 17.15-19.75Q20.54-13.96 26.36-10.58Q32.18-7.20 39.01-7.20L39.01-7.20L53.22-7.20L53.22-28.05L35.50-28.05L31.37-35.25L60.42-35.25L60.42-7.20L60.42 0L53.22 0L38.19 0Q31.68 0 25.67-2.57Q19.66-5.13 15.31-9.49Q10.96-13.84 8.39-19.85Q5.82-25.86 5.82-32.40Q5.82-38.94 8.39-44.95Q10.96-50.96 15.31-55.31Q19.66-59.67 25.67-62.23Q31.68-64.80 38.19-64.80L38.19-64.80Z"></path></svg></g></mask></svg> <defs><filter id="colors9047305189"><feColorMatrix type="matrix" values="0 0 0 0 0.875  0 0 0 0 0.3984375  0 0 0 0 0.3984375  0 0 0 1 0" class="icon-fecolormatrix"></feColorMatrix></filter> <filter id="colorsf3733582268"><feColorMatrix type="matrix" values="0 0 0 0 0.99609375  0 0 0 0 0.99609375  0 0 0 0 0.99609375  0 0 0 1 0" class="icon-fecolormatrix"></feColorMatrix></filter> <filter id="colorsb8149642239"><feColorMatrix type="matrix" values="0 0 0 0 0  0 0 0 0 0  0 0 0 0 0  0 0 0 1 0" class="icon-fecolormatrix"></feColorMatrix></filter></defs><rect v-gra="id" width="73.58126068115234" height="73.58126068115234" transform="translate(-6, -6)" style="pointer-events:none;" fill="url(#nmD4LgFLkxCaHpfl47aL1)"></rect></g> <g transform="translate(69.58126068115234,6.314380645751953)"><g data-gra="path-name" fill-rule="" class="tp-name iconsvg-namesvg" transform="translate(0,0)"><g transform="scale(1)"><g><path d="M5.36-29.6L5.36-32.8 9.36-32.8 18.61-32.8 16.77-36 21.39-36 23.23-32.8 36-32.8 36-29.6 9.36-29.6 9.36-18.57 9.36-15.37 9.36-4.59Q9.36-2.05 8.1 0L8.1 0 4 0Q5.36-2.02 5.36-4.59L5.36-4.59 5.36-15.37 5.36-18.57 5.36-29.6ZM69.11-29.57L72-29.57 72-29.57 76-29.57 76-26.4 76-3.17 76 0 48.8 0Q46.82 0 45.41-1.41 44-2.82 44-4.8L44-4.8 44-26.4 44-29.57 48-29.57 50.89-29.57 50.89-32.77 44-32.77 44-35.97 76-35.97 76-32.77 69.11-32.77 69.11-29.57ZM48-3.17L72-3.17 72-26.4 69.11-26.4 69.11-10.99Q69.11-8.42 70.43-6.37L70.43-6.37 66.37-6.37Q65.11-8.45 65.11-10.99L65.11-10.99 65.11-26.4 54.89-26.4 54.89-10.99Q54.89-8.42 53.63-6.37L53.63-6.37 49.53-6.37Q50.89-8.42 50.89-10.99L50.89-10.99 50.89-26.4 48-26.4 48-3.17ZM54.89-29.57L65.11-29.57 65.11-32.77 54.89-32.77 54.89-29.57ZM83.97-36L84-36 93.39-36 97.39-36 97.39-32.8 97.39-16.56Q97.39-13.98 96.1-11.97L96.1-11.97 92.7-11.97 88 0 83.97 0 88.7-12.35 88.7-30.82 92.7-30.82 92.7-13.15Q93.36-14.68 93.36-16.56L93.36-16.56 93.36-32.8 87.97-32.8 87.97-11.97 83.97-11.97 83.97-32.8 83.97-36ZM99.41-3.3L99.41-21.6 102.61-21.6 102.61-3.76 103.41-3.9 103.41-24.8 107.41-24.8 107.41-17.91 109.15-17.91 109.15-14.71 107.41-14.71 107.41-4.45 110.12-4.8 110.12-1.6 98.61 0 98.61-3.2 99.41-3.3ZM115.41-34.78L115.79-31.58 112.63-31.58 112.24-34.78 115.41-34.78ZM112.56-27.2L116 0 112 0 108.56-27.2 98.64-27.2 98.64-30.4 108.17-30.4 107.44-36 111.44-36 112.17-30.4 116-30.4 116-27.2 112.56-27.2ZM94.89-6.71L94.85-6.71 97.39 0 93.36 0 90.75-6.71 94.89-6.71ZM98.61-31.58L98.61-34.78 106.37-34.78 106.37-31.58 98.61-31.58ZM131.34-24.38L131.34-27.58 156-27.58 156-24.38 152-24.38 152-7.58 156-7.58 156-4.38 152.8-4.38Q150.82-4.38 149.41-5.79 148-7.2 148-9.18L148-9.18 148-24.38 139.2-24.38 135.76-4.38 131.51-4.38 134.96-24.38 131.34-24.38ZM129.36 0L129.36-3.17 156-3.17 156 0 129.36 0ZM124-24.38L124-27.58 125.36-27.58 129.36-27.58 129.36-24.38 129.36-4.59Q129.36-2.05 128.1 0L128.1 0 124 0Q125.36-2.02 125.36-4.59L125.36-4.59 125.36-24.38 124-24.38ZM128.1-35.97L130.57-29.57 126.47-29.57 124-35.97 128.1-35.97ZM133.36-32.8L133.36-35.97 154.02-35.97 154.02-32.8 133.36-32.8Z" transform="translate(-4, 36)"></path></g> <!----> <!----> <!----> <!----> <!----> <!----> <!----></g></g> <g data-gra="path-slogan" fill-rule="" class="tp-slogan iconsvg-slogansvg" fill="#000000" transform="translate(5,46)"><rect x="0" height="1" y="3.9750003814697266" width="35.53944396972656"></rect> <rect height="1" y="3.9750003814697266" width="35.53944396972656" x="106.46055603027344"></rect> <g transform="translate(38.53944396972656,0)"><g transform="scale(1)"><path d="M7.31-3.61L4.69-3.61L4.69-4.59L8.44-4.59L8.44 0L7.69 0L7.41-1.08Q6.42 0.09 4.59 0.14L4.59 0.14Q2.86 0.14 1.92-0.75L1.92-0.75Q0.52-2.06 0.56-4.36L0.56-4.36Q0.89-8.63 4.64-8.81L4.64-8.81Q7.83-8.63 8.30-6L8.30-6L7.17-6Q6.70-7.78 4.59-7.83L4.59-7.83Q1.92-7.64 1.78-4.31L1.78-4.31Q1.78-0.75 4.64-0.75L4.64-0.75Q5.67-0.75 6.42-1.31L6.42-1.31Q7.36-2.06 7.31-3.61L7.31-3.61ZM16.97-8.58L14.06-4.41L17.11 0L15.66 0L13.31-3.52L10.97 0L9.56 0L12.66-4.41L9.75-8.58L11.20-8.58L13.36-5.30L15.56-8.58L16.97-8.58ZM23.72-3.89L19.50-3.89L19.50 0L18.33 0L18.33-8.58L24.28-8.58L24.28-7.59L19.50-7.59L19.50-4.92L23.72-4.92L23.72-3.89ZM31.13-3.19L31.13-8.58L32.30-8.58L32.30-3.05Q32.16 0.05 28.78 0.14L28.78 0.14Q25.64 0.05 25.50-2.86L25.50-2.86L25.50-8.58L26.67-8.58L26.67-3.19Q26.72-0.84 28.83-0.80L28.83-0.80Q31.13-0.84 31.13-3.19L31.13-3.19ZM41.02-8.58L37.78-3.47L37.78 0L36.61 0L36.61-3.47L33.38-8.58L34.73-8.58L37.17-4.45L39.66-8.58L41.02-8.58ZM47.72-3.19L47.72-8.58L48.89-8.58L48.89-3.05Q48.75 0.05 45.38 0.14L45.38 0.14Q42.23 0.05 42.09-2.86L42.09-2.86L42.09-8.58L43.27-8.58L43.27-3.19Q43.31-0.84 45.42-0.80L45.42-0.80Q47.72-0.84 47.72-3.19L47.72-3.19ZM56.34 0L55.50-2.48L52.03-2.48L51.14 0L49.97 0L53.20-8.58L54.52-8.58L57.61 0L56.34 0ZM53.77-7.31L52.41-3.52L55.08-3.52L53.81-7.31L53.77-7.31ZM60.05-8.58L64.36-1.64L64.36-8.58L65.48-8.58L65.48 0L64.17 0L59.81-6.94L59.77-6.94L59.77 0L58.64 0L58.64-8.58L60.05-8.58Z" transform="translate(-0.5609879032258065, 8.8125)"></path></g></g></g></g></g><defs v-gra="od"></defs><defs v-gra="id"><filter id="75489159-e6f8-4872-9be4-1aae3d5333e0" filterUnits="userSpaceOnUse"><feColorMatrix type="matrix" values="0 0 0 0 0.99609375  0 0 0 0 0.99609375  0 0 0 0 0.99609375  0 0 0 1 0"></feColorMatrix></filter><linearGradient x1="0" y1="1" x2="0" y2="0" id="nmD4LgFLkxCaHpfl47aL1"><stop offset="0%" stop-color="#ff51f9"></stop><stop offset="50%" stop-color="#a348ff"></stop><stop offset="100%" stop-color="#3978ff"></stop></linearGradient><filter id="42443b3f1de60f6b6fd3b6a9844b4764" filterUnits="objectBoundingBox"><feColorMatrix type="matrix" values="0 0 0 0 0.99609375  0 0 0 0 0.99609375  0 0 0 0 0.99609375  0 0 0 1 0"></feColorMatrix></filter></defs><mask v-gra="im" id="d783b068-ce53-423f-8a7a-509f3bf4cc50"><g fill="#E06666" class="iconsvg-imagesvg icon_container" filter="url(#75489159-e6f8-4872-9be4-1aae3d5333e0)"><rect fill="#000000" fill-opacity="0" stroke-width="2" x="0" y="0" width="61.581259150805266" height="61.581259150805266" class="image-rect"></rect> <svg viewBox="0 0 60 60" x="0" y="0" width="61.581259150805266" height="61.581259150805266" class="image-svg-svg bn" style="overflow: visible;"><g hollow-target="iconBnFill" mask="url(#9bef58c4-fce7-44c1-8be7-622d1e810145)"><g><svg fill="#000000" xmlns="http://www.w3.org/2000/svg" xmlns:xlink="http://www.w3.org/1999/xlink" xmlns:sketch="http://www.bohemiancoding.com/sketch/ns" viewBox="0 0 60 60" version="1.1" x="0" y="0" style="overflow: visible;" width="60" height="60" filtersec="colorsf3733582268"><g transform="scale(1, 1) skewX(0)"><title>96 - Rounded (Solid)</title><desc>Created with Sketch.</desc><g fill-rule="evenodd"><g fill="#000000"><path d="M49.001,0 L10.999,0 C4.934,0 0,4.934 0,10.999 L0,49.001 C0,55.066 4.934,60 10.999,60 L49.001,60 C55.065,60 60,55.066 60,49.001 L60,10.999 C60,4.934 55.065,0 49.001,0"></path></g></g></g><defs><filter id="8Ie146E96eJfIQpbPNAK2"><feColorMatrix type="matrix" values="0 0 0 0 0.875  0 0 0 0 0.3984375  0 0 0 0 0.3984375  0 0 0 1 0"></feColorMatrix></filter></defs></svg></g> <g><svg xmlns="http://www.w3.org/2000/svg" xmlns:xlink="http://www.w3.org/1999/xlink" viewBox="0 0 54.59478260869565 64.80000000000001" width="50" height="50" x="5" y="5" class="image-svg-letter"><path transform="translate(-5.822608695652175 64.80000000000001)" d="M38.19-64.80L38.25-64.80L60.42-64.80L56.22-57.60L39.01-57.60Q32.18-57.60 26.36-54.22Q20.54-50.84 17.15-45.02Q13.77-39.19 13.77-32.37Q13.77-25.54 17.15-19.75Q20.54-13.96 26.36-10.58Q32.18-7.20 39.01-7.20L39.01-7.20L53.22-7.20L53.22-28.05L35.50-28.05L31.37-35.25L60.42-35.25L60.42-7.20L60.42 0L53.22 0L38.19 0Q31.68 0 25.67-2.57Q19.66-5.13 15.31-9.49Q10.96-13.84 8.39-19.85Q5.82-25.86 5.82-32.40Q5.82-38.94 8.39-44.95Q10.96-50.96 15.31-55.31Q19.66-59.67 25.67-62.23Q31.68-64.80 38.19-64.80L38.19-64.80Z"></path></svg></g></g><mask id="9bef58c4-fce7-44c1-8be7-622d1e810145"><g fill="white"><svg xmlns="http://www.w3.org/2000/svg" xmlns:xlink="http://www.w3.org/1999/xlink" xmlns:sketch="http://www.bohemiancoding.com/sketch/ns" viewBox="0 0 60 60" version="1.1" x="0" y="0" style="overflow: visible;" width="60" height="60" filtersec="colorsf3733582268"><g transform="scale(1, 1) skewX(0)"><title>96 - Rounded (Solid)</title><desc>Created with Sketch.</desc><g fill-rule="evenodd"><g><path d="M49.001,0 L10.999,0 C4.934,0 0,4.934 0,10.999 L0,49.001 C0,55.066 4.934,60 10.999,60 L49.001,60 C55.065,60 60,55.066 60,49.001 L60,10.999 C60,4.934 55.065,0 49.001,0"></path></g></g></g><defs></defs></svg></g> <g fill="black"><svg xmlns="http://www.w3.org/2000/svg" xmlns:xlink="http://www.w3.org/1999/xlink" viewBox="0 0 54.59478260869565 64.80000000000001" width="50" height="50" x="5" y="5" class="image-svg-letter"><path transform="translate(-5.822608695652175 64.80000000000001)" d="M38.19-64.80L38.25-64.80L60.42-64.80L56.22-57.60L39.01-57.60Q32.18-57.60 26.36-54.22Q20.54-50.84 17.15-45.02Q13.77-39.19 13.77-32.37Q13.77-25.54 17.15-19.75Q20.54-13.96 26.36-10.58Q32.18-7.20 39.01-7.20L39.01-7.20L53.22-7.20L53.22-28.05L35.50-28.05L31.37-35.25L60.42-35.25L60.42-7.20L60.42 0L53.22 0L38.19 0Q31.68 0 25.67-2.57Q19.66-5.13 15.31-9.49Q10.96-13.84 8.39-19.85Q5.82-25.86 5.82-32.40Q5.82-38.94 8.39-44.95Q10.96-50.96 15.31-55.31Q19.66-59.67 25.67-62.23Q31.68-64.80 38.19-64.80L38.19-64.80Z"></path></svg></g></mask></svg> <defs><filter id="colors9047305189"><feColorMatrix type="matrix" values="0 0 0 0 0.875  0 0 0 0 0.3984375  0 0 0 0 0.3984375  0 0 0 1 0" class="icon-fecolormatrix"></feColorMatrix></filter> <filter id="colorsf3733582268"><feColorMatrix type="matrix" values="0 0 0 0 0.99609375  0 0 0 0 0.99609375  0 0 0 0 0.99609375  0 0 0 1 0" class="icon-fecolormatrix"></feColorMatrix></filter> <filter id="colorsb8149642239"><feColorMatrix type="matrix" values="0 0 0 0 0  0 0 0 0 0  0 0 0 0 0  0 0 0 1 0" class="icon-fecolormatrix"></feColorMatrix></filter></defs></g></mask></svg>